<?xml version="1.0" standalone="no"?><!DOCTYPE svg PUBLIC "-//W3C//DTD SVG 1.1//EN" "http://www.w3.org/Graphics/SVG/1.1/DTD/svg11.dtd"><svg t="1749638945819" class="icon" viewBox="0 0 1024 1024" version="1.1" xmlns="http://www.w3.org/2000/svg" p-id="4500" xmlns:xlink="http://www.w3.org/1999/xlink" width="200" height="200"><path d="M331.101217 36.272756C350.149089 15.218898 377.386906-0.099999 406.304711 0.003H617.819288c23.79784-0.204999 46.427688 10.567929 64.326567 25.681827 10.669928 8.90794 19.35387 20.212864 24.719834 33.074778 15.645895 37.313749 31.23179 74.669498 46.898684 111.963246 68.668538 0 137.317076-0.041 206.005614 0a20.418863 20.418863 0 0 1 18.411876 10.42393c2.98998 5.037966 2.559983 11.099925 2.620983 16.731888-0.203999 12.860913 0.204999 25.763827-0.142999 38.62474-0.081999 10.854927-10.219931 19.988866-20.970859 19.455869-21.381856 0.143999-42.782712-0.04-64.143569 0.061999v631.494751c0.225998 29.879799-7.249951 60.149595-23.653841 85.298426-13.127912 20.294863-31.313789 38.562741-54.619632 46.489688a91.176387 91.176387 0 0 1-30.555794 4.668968l-551.234291-0.021a88.309406 88.309406 0 0 1-41.860719-10.116932c-19.086872-10.157932-34.016771-26.80782-45.055697-45.116696-14.253904-23.75684-20.254864-51.711652-20.069865-79.257467-0.041-211.166579 0.02-422.293159-0.019999-633.460738-21.360856 0-42.680713 0.122999-63.99957 0-10.875927 0.614996-21.094858-8.641942-21.115858-19.619867-0.203999-15.461896-0.265998-30.964792 0.041-46.427688 0.204999-10.771928 10.259931-19.762867 20.929859-19.189871 68.669538-0.04 137.297076 0 205.966614 0l38.993738-93.121373c6.102959-14.355903 11.139925-29.592801 21.809853-41.369722z m63.180575 59.289601c-10.46493 25.066831-20.970859 50.113663-31.435788 75.201494l298.348992-0.02c-10.157932-24.822833-20.397863-49.623666-30.473795-74.485499A16.752887 16.752887 0 0 0 613.929314 85.279426c-67.890543 0.062-135.781086 0.041-203.65163 0.02a16.444889 16.444889 0 0 0-15.994892 10.260931zM312.567342 342.527695a20.684861 20.684861 0 0 0-13.577909 20.438863l-0.02 457.313923c0.142999 6.163959-0.552996 12.451916 0.920994 18.492875 2.334984 8.724941 11.119925 14.786901 20.029865 14.459903 14.765901 0.02 29.531801 0.121999 44.297702-0.042 11.263924 0.163999 20.76586-10.38293 19.987866-21.564855 0.062-155.543953-0.02-311.087907 0.041-466.63286 0.306998-6.900954-1.637989-14.314904-7.289951-18.759874-7.700948-6.920953-18.800873-4.50497-28.24281-4.913967-12.061919 0.572996-24.329836-1.269991-36.146757 1.207992z m169.490859 0.368998a20.76686 20.76686 0 0 0-12.635915 20.233864c-0.02 156.239949-0.04 312.480897 0.02 468.741846-0.736995 10.874927 8.417943 21.175858 19.41587 21.298856 15.441896 0.163999 30.882792 0.183999 46.345688-0.019999 10.935926-0.062 20.069865-10.38393 19.393869-21.217858 0.041-156.280948 0.02-312.562897 0-468.843845a20.684861 20.684861 0 0 0-8.969939-18.185878c-8.170945-5.549963-18.636875-2.98998-27.872813-3.563976-11.87892 0.675995-24.125838-1.617989-35.69676 1.55699z m170.781851-0.122999c-8.212945 3.071979-13.43491 11.734921-13.004912 20.438862-0.041 156.218949-0.062 312.418898 0.02 468.659847-0.716995 11.099925 8.785941 21.462856 19.988865 21.277857 15.420896 0.143999 30.882792 0.286998 46.345688-0.082 10.771928-0.326998 19.496869-10.44393 18.902873-21.093858 0.122999-156.321948 0.101999-312.644896 0.02-468.966845 0.696995-10.772928-8.129945-21.237857-19.127871-21.462855-11.529922-0.511997-23.039845-0.02-34.569768-0.224999-6.205958 0.142999-12.615915-0.593996-18.574875 1.453991z" fill="#ffffff" p-id="4501"></path></svg>