<?xml version="1.0" standalone="no"?><!DOCTYPE svg PUBLIC "-//W3C//DTD SVG 1.1//EN" "http://www.w3.org/Graphics/SVG/1.1/DTD/svg11.dtd"><svg t="1749639489412" class="icon" viewBox="0 0 1890 1024" version="1.1" xmlns="http://www.w3.org/2000/svg" p-id="15776" xmlns:xlink="http://www.w3.org/1999/xlink" width="369.140625" height="200"><path d="M1384.054154 0C1663.684923 0 1890.461538 229.218462 1890.461538 512S1663.763692 1024 1384.054154 1024H506.486154C226.776615 1024 0 794.781538 0 512S226.697846 0 506.407385 0H1383.975385z m0 102.4c-223.704615 0-405.031385 183.374769-405.031385 409.6 0 226.225231 181.326769 409.6 405.031385 409.6 223.704615 0 405.110154-183.374769 405.110154-409.6 0-226.225231-181.326769-409.6-405.110154-409.6z" fill="#12CE66" p-id="15777"></path><path d="M979.022769 512c0 226.225231 181.326769 409.6 405.031385 409.6 223.704615 0 405.110154-183.374769 405.110154-409.6a410.387692 410.387692 0 0 0-202.515693-354.697846 401.250462 401.250462 0 0 0-405.110153 0A410.387692 410.387692 0 0 0 979.022769 512z" fill="#FFFFFF" p-id="15778"></path></svg>